<svg data-v-5b7bfed0="" version="1.0" xmlns="http://www.w3.org/2000/svg" xmlns:xlink="http://www.w3.org/1999/xlink" width="100%" height="100%" viewBox="0 0 340.000000 250.000000" preserveAspectRatio="xMidYMid meet" color-interpolation-filters="sRGB" class="el-tooltip" style="margin: auto;"><rect data-v-5b7bfed0="" x="0" y="0" width="100%" height="100%" fill="#fff" fill-opacity="1" class="background"></rect> <rect data-v-5b7bfed0="" x="0" y="0" width="100%" height="100%" fill="url(#watermark)" fill-opacity="1" class="watermarklayer"></rect> <g data-v-5b7bfed0="" class="iconmbgsvg" transform="translate(95,49.99523162841797)"><g fill="#4d4d4d" hollow-target="textRect"><g mask="url(#0fe8ea45-4407-43e8-a7f1-d6f31f990544)"><rect fill="#4d4d4d" fill-opacity="0" stroke-width="2" x="0" y="0" width="150" height="150.00890524815958" class="image-rect"></rect> <svg x="0" y="0" width="150" height="150.00890524815958" filtersec="colorsb2680289947" class="image-svg-svg primary"><svg xmlns="http://www.w3.org/2000/svg" viewBox="0 0 673.76 673.8"><path fill="#b3b3b3" d="M228.925 336.898l107.933-107.932 107.933 107.932-107.933 107.933z"></path><path d="M88.33 444.8l-74.54-74.54a47.33 47.33 0 0 1 0-66.78l74.54-74.55 124.29-124.22 107.9 107.9L196.27 336.9l124.25 124.28-107.9 107.94z" fill="#4d4d4d" fill-rule="evenodd"></path><path d="M370.22 13.8L585.4 228.94l74.55 74.55a47.33 47.33 0 0 1 0 66.78l-74.52 74.53-215.21 215.21a47.3 47.3 0 0 1-66.77 0l-74.55-74.58L477.5 336.9 228.93 88.36l74.55-74.56a47.25 47.25 0 0 1 66.74 0z" fill="#da251d" fill-rule="evenodd"></path></svg></svg> <!----></g> <g transform="translate(44.915000915527344,55.75476837158203)"><g fill-rule="" class="tp-name"><g><path d="M7.42 0Q7.75 0 8.00-0.25Q8.25-0.49 8.25-0.82L8.25-0.82L8.25-17.66L24.97-17.66L24.97 0L29.64 0Q29.98 0 30.22-0.25Q30.47-0.49 30.47-0.82L30.47-0.82L30.47-38.50L24.97-38.50L24.97-22.16L8.25-22.16L8.25-38.50L2.75-38.50L2.75 0L7.42 0ZM40.98 0Q41.30 0 41.55-0.25Q41.80-0.49 41.80-0.82L41.80-0.82L41.80-17.66L61.82-17.66Q62.15-17.66 62.40-17.90Q62.64-18.15 62.64-18.48L62.64-18.48L62.64-22.16L41.80-22.16L41.80-33.99L62.09-33.99Q62.42-33.99 62.67-34.24Q62.92-34.48 62.92-34.81L62.92-34.81L62.92-38.50L36.30-38.50L36.30 0L40.98 0Z" transform="translate(-2.75, 38.5)"></path></g> <!----> <!----> <!----> <!----> <!----> <!----> <!----></g> <!----></g></g></g><mask id="0fe8ea45-4407-43e8-a7f1-d6f31f990544"><g fill="white"><rect fill-opacity="1" stroke-width="2" x="0" y="0" width="150" height="150.00890524815958" class="image-rect"></rect> <svg x="0" y="0" width="150" height="150.00890524815958" filtersec="colorsb2680289947" class="image-svg-svg primary"><svg xmlns="http://www.w3.org/2000/svg" viewBox="0 0 673.76 673.8"><path d="M228.925 336.898l107.933-107.932 107.933 107.932-107.933 107.933z"></path><path d="M88.33 444.8l-74.54-74.54a47.33 47.33 0 0 1 0-66.78l74.54-74.55 124.29-124.22 107.9 107.9L196.27 336.9l124.25 124.28-107.9 107.94z" fill-rule="evenodd"></path><path d="M370.22 13.8L585.4 228.94l74.55 74.55a47.33 47.33 0 0 1 0 66.78l-74.52 74.53-215.21 215.21a47.3 47.3 0 0 1-66.77 0l-74.55-74.58L477.5 336.9 228.93 88.36l74.55-74.56a47.25 47.25 0 0 1 66.74 0z" fill-rule="evenodd"></path></svg></svg> </g> <rect fill="#000" fill-opacity="1" x="41.415000915527344" y="52.25476837158203" width="67.16999816894531" height="45.5"></rect><g transform="translate(44.915000915527344,55.75476837158203)" fill="black"><g fill-rule="" class="tp-name"><g><path d="M7.42 0Q7.75 0 8.00-0.25Q8.25-0.49 8.25-0.82L8.25-0.82L8.25-17.66L24.97-17.66L24.97 0L29.64 0Q29.98 0 30.22-0.25Q30.47-0.49 30.47-0.82L30.47-0.82L30.47-38.50L24.97-38.50L24.97-22.16L8.25-22.16L8.25-38.50L2.75-38.50L2.75 0L7.42 0ZM40.98 0Q41.30 0 41.55-0.25Q41.80-0.49 41.80-0.82L41.80-0.82L41.80-17.66L61.82-17.66Q62.15-17.66 62.40-17.90Q62.64-18.15 62.64-18.48L62.64-18.48L62.64-22.16L41.80-22.16L41.80-33.99L62.09-33.99Q62.42-33.99 62.67-34.24Q62.92-34.48 62.92-34.81L62.92-34.81L62.92-38.50L36.30-38.50L36.30 0L40.98 0Z" transform="translate(-2.75, 38.5)"></path></g>       </g> </g></mask></svg>